HIERARCHY
ROOT joint_Root
{
	OFFSET 0.0 0.0 0.0
	CHANNELS 6 Xposition Yposition Zposition Zrotation Xrotation Yrotation 
	JOINT Hips
	{
		OFFSET -17.1583 93.1646 452.98
		CHANNELS 6 Xposition Yposition Zposition Zrotation Xrotation Yrotation 
		JOINT Spine
		{
			OFFSET 15.7357 0.0 0.0
			CHANNELS 6 Xposition Yposition Zposition Zrotation Xrotation Yrotation 
			JOINT Chest
			{
				OFFSET 8.98455 -0.406207 0.0
				CHANNELS 6 Xposition Yposition Zposition Zrotation Xrotation Yrotation 
				JOINT Neck
				{
					OFFSET 16.3773 0.0 0.0
					CHANNELS 6 Xposition Yposition Zposition Zrotation Xrotation Yrotation 
					JOINT Head
					{
						OFFSET 6.45672 0.0 0.0
						CHANNELS 6 Xposition Yposition Zposition Zrotation Xrotation Yrotation 
						End Site
						{
							OFFSET 0.0 0.0 0.0
						}
					}
				}
				JOINT Shoulder_L
				{
					OFFSET 12.9942 -0.242716 4.98039
					CHANNELS 6 Xposition Yposition Zposition Zrotation Xrotation Yrotation 
					JOINT UpperArm_L
					{
						OFFSET 5.34809 0.0 0.0
						CHANNELS 6 Xposition Yposition Zposition Zrotation Xrotation Yrotation 
						JOINT LowerArm_L
						{
							OFFSET 24.3286 1.87007e-05 0.0
							CHANNELS 6 Xposition Yposition Zposition Zrotation Xrotation Yrotation 
							JOINT Hand_L
							{
								OFFSET 22.2916 0.0 0.0
								CHANNELS 6 Xposition Yposition Zposition Zrotation Xrotation Yrotation 
								End Site
								{
									OFFSET 0.0 0.0 0.0
								}
							}
						}
					}
				}
				JOINT Shoulder_R
				{
					OFFSET 12.9945 -0.242716 -4.98039
					CHANNELS 6 Xposition Yposition Zposition Zrotation Xrotation Yrotation 
					JOINT UpperArm_R
					{
						OFFSET -5.34813 0.0 0.0
						CHANNELS 6 Xposition Yposition Zposition Zrotation Xrotation Yrotation 
						JOINT LowerArm_R
						{
							OFFSET -24.3289 0.000322201 0.0
							CHANNELS 6 Xposition Yposition Zposition Zrotation Xrotation Yrotation 
							JOINT Hand_R
							{
								OFFSET -22.2915 -0.000108084 0.0
								CHANNELS 6 Xposition Yposition Zposition Zrotation Xrotation Yrotation 
								End Site
								{
									OFFSET 0.0 0.0 0.0
								}
							}
						}
					}
				}
			}
		}
		JOINT UpperLeg_L
		{
			OFFSET -2.19248 -6.46944 0.0
			CHANNELS 6 Xposition Yposition Zposition Zrotation Xrotation Yrotation 
			JOINT LowerLeg_L
			{
				OFFSET 39.0811 0.0 -1.23785e-05
				CHANNELS 6 Xposition Yposition Zposition Zrotation Xrotation Yrotation 
				JOINT Foot_L
				{
					OFFSET 40.9854 0.0 -1.26872e-05
					CHANNELS 6 Xposition Yposition Zposition Zrotation Xrotation Yrotation 
					JOINT Toes_L
					{
						OFFSET 11.7543 0.0 0.0
						CHANNELS 6 Xposition Yposition Zposition Zrotation Xrotation Yrotation 
						End Site
						{
							OFFSET 0.0 0.0 0.0
						}
					}
				}
			}
		}
		JOINT UpperLeg_R
		{
			OFFSET -2.19251 6.46944 0.0
			CHANNELS 6 Xposition Yposition Zposition Zrotation Xrotation Yrotation 
			JOINT LowerLeg_R
			{
				OFFSET -39.0811 -0.00228153 -0.0401928
				CHANNELS 6 Xposition Yposition Zposition Zrotation Xrotation Yrotation 
				JOINT Foot_R
				{
					OFFSET -40.9854 0.0 0.0
					CHANNELS 6 Xposition Yposition Zposition Zrotation Xrotation Yrotation 
					JOINT Toes_R
					{
						OFFSET -11.7543 0.0 0.0
						CHANNELS 6 Xposition Yposition Zposition Zrotation Xrotation Yrotation 
						End Site
						{
							OFFSET 0.0 0.0 0.0
						}
					}
				}
			}
		}
	}
}
MOTION
Frames:	4
Frame Time:	0.0333333
0.000000 0.000000 0.000000 0.000000 0.000000 -0.000000 -2.745440 92.307600 0.935108 85.367000 -1.269580 0.113896 15.735700 0.000005 -0.000001 113.297000 88.372400 -110.742000 8.984550 -0.406207 -0.000000 -4.793940 1.006360 5.156460 16.377300 -0.000001 -0.000001 10.865000 2.594380 -12.397000 6.456720 -0.000001 -0.000000 7.303280 -0.860045 -20.230700 12.994200 -0.242716 4.980390 -92.995300 7.677100 -68.610600 5.348090 -0.000007 -0.000001 -73.094400 -6.644630 -4.833300 24.328600 0.000019 0.000005 42.876000 -45.031100 -127.307000 22.291600 -0.000001 0.000005 42.980100 4.892880 9.519380 12.994500 -0.242716 -4.980390 88.671200 3.864830 -71.010100 -5.348130 -0.000001 -0.000004 -71.644400 30.257700 -2.471350 -24.328900 0.000322 -0.000009 2.907550 8.724530 -18.518900 -22.291500 -0.000108 -0.000004 -0.320967 5.219650 2.221600 -2.192480 -6.469440 -0.000000 -173.634000 1.833630 -4.840070 39.081100 -0.000007 -0.000012 0.207807 -0.454201 24.585400 40.985400 -0.000006 -0.000013 -1.792360 5.929620 -74.558100 11.754300 -0.000000 0.000003 0.000372 0.161112 -10.042500 -2.192510 6.469440 -0.000001 -171.757000 4.508440 -178.679000 -39.081100 -0.002282 -0.040193 0.045446 -0.174043 13.602400 -40.985400 0.000008 0.000006 1.287190 2.593110 -70.182000 -11.754300 -0.000006 -0.000006 -0.012215 0.287174 -4.901440
0.000000 0.000000 0.000000 0.000000 0.000000 -0.000000 -2.719400 92.320800 0.940610 85.362000 -1.306220 0.092473 15.735700 0.000005 -0.000001 112.738000 88.358900 -110.179000 8.984550 -0.406207 -0.000000 -4.756250 0.987964 5.163660 16.377300 -0.000001 -0.000001 10.927200 2.575720 -12.306800 6.456720 -0.000001 -0.000000 7.176480 -0.749169 -20.103600 12.994200 -0.242716 4.980390 -92.995800 7.676690 -68.605900 5.348090 -0.000007 -0.000001 -73.124100 -6.632280 -4.830460 24.328600 0.000019 0.000005 42.830300 -44.942900 -127.309000 22.291600 -0.000001 0.000005 42.995000 4.884840 9.678810 12.994500 -0.242716 -4.980390 88.661700 3.893890 -71.015400 -5.348130 -0.000001 -0.000004 -71.544700 30.193500 -2.495180 -24.328900 0.000322 -0.000009 2.901190 8.674600 -18.579400 -22.291500 -0.000108 -0.000004 -0.268804 5.217480 2.277100 -2.192480 -6.469440 -0.000000 -173.644000 1.793550 -4.812450 39.081100 -0.000007 -0.000012 0.205371 -0.450415 24.511400 40.985400 -0.000006 -0.000013 -1.822280 5.938710 -74.536100 11.754300 -0.000000 0.000003 0.000486 0.158992 -10.128600 -2.192510 6.469440 -0.000001 -171.785000 4.434560 -178.662000 -39.081100 -0.002282 -0.040193 0.043476 -0.166780 13.533400 -40.985400 0.000008 0.000006 1.150500 2.608860 -70.151900 -11.754300 -0.000006 -0.000006 -0.012383 0.288321 -4.854440
0.000000 0.000000 0.000000 0.000000 0.000000 -0.000000 -2.684800 92.319200 0.944007 85.366700 -1.325510 0.043506 15.735700 0.000005 -0.000001 112.130000 88.348200 -109.566000 8.984550 -0.406207 -0.000000 -4.722590 0.964149 5.170830 16.377300 -0.000001 -0.000001 10.849800 2.598880 -12.263100 6.456720 -0.000001 -0.000000 7.174760 -0.729499 -19.949200 12.994200 -0.242716 4.980390 -93.002100 7.684830 -68.585800 5.348090 -0.000007 -0.000001 -73.146900 -6.657740 -4.811610 24.328600 0.000019 0.000005 42.753800 -44.857400 -127.341000 22.291600 -0.000001 0.000005 42.974400 4.884970 9.676120 12.994500 -0.242716 -4.980390 88.657900 3.909790 -71.037900 -5.348130 -0.000001 -0.000004 -71.432000 30.107400 -2.542510 -24.328900 0.000322 -0.000009 2.886690 8.619830 -18.601300 -22.291500 -0.000108 -0.000004 -0.234663 5.219720 2.220030 -2.192480 -6.469440 -0.000000 -173.684000 1.790580 -4.850980 39.081100 -0.000007 -0.000012 0.207774 -0.456056 24.493700 40.985400 -0.000006 -0.000013 -1.716840 5.883120 -74.480800 11.754300 -0.000000 0.000003 0.000619 0.156466 -10.231100 -2.192510 6.469440 -0.000001 -171.810000 4.437790 -178.730000 -39.081100 -0.002282 -0.040193 0.044132 -0.169014 13.571300 -40.985400 0.000008 0.000006 1.140920 2.613670 -70.140300 -11.754300 -0.000006 -0.000006 -0.012201 0.287075 -4.905470
0.000000 0.000000 0.000000 0.000000 0.000000 -0.000000 -2.649090 92.335600 0.943657 85.392700 -1.324210 -0.029755 15.735700 0.000005 -0.000001 112.110000 88.342700 -109.553000 8.984550 -0.406207 -0.000000 -4.712100 0.968130 5.159030 16.377300 -0.000001 -0.000001 10.842000 2.554000 -12.173800 6.456720 -0.000001 -0.000000 7.067070 -0.774398 -19.854600 12.994200 -0.242716 4.980390 -92.990000 7.670790 -68.629000 5.348090 -0.000007 -0.000001 -73.225700 -6.777910 -4.733120 24.328600 0.000019 0.000005 42.902500 -44.848400 -127.193000 22.291600 -0.000001 0.000005 42.936300 4.888010 9.616000 12.994500 -0.242716 -4.980390 88.654500 3.915010 -71.016100 -5.348130 -0.000001 -0.000004 -71.325300 30.099400 -2.598510 -24.328900 0.000322 -0.000009 2.892870 8.638410 -18.601400 -22.291500 -0.000108 -0.000004 -0.186839 5.217570 2.274850 -2.192480 -6.469440 -0.000000 -173.731000 1.747040 -4.873550 39.081100 -0.000007 -0.000012 0.205590 -0.453324 24.395400 40.985400 -0.000006 -0.000013 -1.746240 5.884140 -74.472500 11.754300 -0.000000 0.000003 0.000475 0.159195 -10.120300 -2.192510 6.469440 -0.000001 -171.851000 4.369920 -178.749000 -39.081100 -0.002282 -0.040193 0.042924 -0.165400 13.461300 -40.985400 0.000008 0.000006 1.105620 2.561580 -70.111000 -11.754300 -0.000006 -0.000006 -0.012403 0.288458 -4.848820
